<?xml version="1.0" standalone="no"?>
<!DOCTYPE svg PUBLIC "-//W3C//DTD SVG 20010904//EN"
 "http://www.w3.org/TR/2001/REC-SVG-20010904/DTD/svg10.dtd">
<svg version="1.0" xmlns="http://www.w3.org/2000/svg"
 width="512.000000pt" height="512.000000pt" viewBox="0 0 512.000000 512.000000"
 preserveAspectRatio="xMidYMid meet">

<g transform="translate(0.000000,512.000000) scale(0.100000,-0.100000)"
fill="#000000" stroke="none">
<path d="M3245 5086 c-149 -36 -262 -145 -299 -291 -23 -84 -23 -1111 -2
-1193 29 -108 109 -208 203 -255 l42 -20 3 -242 3 -242 28 -36 c35 -47 91 -65
144 -49 24 7 165 112 373 276 l334 265 361 3 360 3 69 34 c115 56 189 147 220
266 14 50 16 142 16 587 0 352 -4 545 -11 580 -33 156 -162 284 -317 317 -78
16 -1459 14 -1527 -3z m1505 -284 c71 -38 70 -26 70 -608 l0 -521 -23 -34
c-40 -59 -39 -59 -430 -59 -279 0 -365 -3 -390 -14 -18 -7 -136 -95 -262 -195
-126 -99 -233 -181 -237 -181 -4 0 -8 68 -8 151 l0 151 -38 38 c-26 26 -50 40
-77 45 -63 10 -103 32 -125 67 -19 32 -20 52 -20 553 0 485 1 523 18 554 10
19 34 43 53 53 32 17 75 18 734 18 660 0 702 -1 735 -18z"/>
<path d="M3954 4616 c-58 -26 -78 -68 -82 -178 l-4 -98 -87 0 c-101 0 -145
-17 -175 -69 -24 -42 -25 -111 -2 -146 33 -50 72 -65 174 -65 l92 0 0 -87 c0
-102 16 -145 69 -180 63 -43 155 -22 198 43 13 20 18 53 21 126 l4 98 90 0
c59 0 99 5 118 15 97 50 97 194 0 246 -26 14 -56 19 -121 19 l-87 0 -4 98 c-3
83 -7 103 -27 131 -40 56 -112 75 -177 47z"/>
<path d="M1443 4466 c-400 -106 -674 -458 -674 -866 0 -211 45 -355 164 -528
152 -220 408 -362 687 -379 166 -10 348 34 499 120 93 53 236 187 297 279 57
86 106 199 130 304 27 113 25 310 -5 419 -23 88 -83 221 -130 289 -112 162
-284 288 -481 352 -74 23 -105 27 -240 31 -139 3 -164 1 -247 -21z m406 -278
c190 -57 353 -220 414 -413 29 -93 31 -272 3 -355 -55 -164 -168 -303 -301
-371 -119 -62 -167 -74 -295 -74 -134 0 -215 21 -318 82 -352 209 -412 684
-123 974 167 166 398 225 620 157z"/>
<path d="M575 2285 c-249 -46 -439 -213 -523 -460 l-27 -80 0 -817 c0 -810 0
-817 21 -845 11 -15 36 -36 55 -45 32 -17 127 -18 1564 -18 1437 0 1532 1
1565 18 19 9 45 33 58 51 l23 35 -3 815 -3 816 -31 86 c-76 212 -230 360 -449
429 -59 19 -100 23 -267 27 -108 3 -217 2 -242 -1 -74 -11 -96 -38 -176 -218
-39 -90 -75 -167 -80 -171 -4 -5 -73 75 -154 176 -81 102 -159 191 -173 198
-36 19 -104 17 -136 -4 -15 -10 -91 -98 -170 -197 -78 -98 -145 -179 -148
-179 -4 -1 -39 72 -79 162 -76 172 -96 201 -147 223 -43 18 -379 18 -478 -1z
m379 -357 c23 -51 166 -369 316 -707 151 -338 285 -627 298 -642 47 -57 141
-57 195 -2 16 18 146 297 341 733 l314 705 154 -1 c134 -1 160 -4 211 -23 81
-32 167 -114 209 -199 l33 -67 3 -712 2 -713 -1365 0 -1365 0 0 170 0 170 128
0 c101 0 134 4 161 18 52 26 76 65 76 122 0 57 -24 96 -76 122 -27 14 -60 18
-161 18 l-128 0 0 139 0 140 248 3 c214 3 251 5 279 21 90 49 95 186 9 238
-28 17 -54 19 -283 19 l-253 0 0 93 c0 50 5 111 10 135 34 146 150 263 295
298 28 7 108 13 178 13 l128 1 43 -92z m781 -79 l65 -81 0 -227 0 -227 -63
-139 c-35 -77 -67 -140 -71 -140 -4 0 -36 65 -71 144 l-65 145 0 219 0 219 67
84 c36 46 68 84 69 84 2 0 33 -36 69 -81z"/>
</g>
</svg>
