<svg id="svg" version="1.1" xmlns="http://www.w3.org/2000/svg" xmlns:xlink="http://www.w3.org/1999/xlink" width="400" height="348.0865224625624" viewBox="0, 0, 400,348.0865224625624"><g id="svgg"><path id="path0" d="M196.363 0.585 C 194.063 1.731,193.785 2.412,192.665 9.651 C 192.231 12.457,190.637 22.156,189.123 31.205 L 186.371 47.656 181.094 54.587 C 178.192 58.400,175.668 61.596,175.485 61.692 C 175.302 61.787,173.605 62.237,171.714 62.692 C 143.683 69.436,118.050 87.563,101.851 112.095 L 99.986 114.920 84.096 114.920 L 68.206 114.920 67.909 113.915 C 65.580 106.026,54.406 103.589,48.347 109.647 C 39.780 118.215,48.262 132.458,60.139 129.448 C 60.687 129.309,61.194 130.012,71.974 145.874 L 83.236 162.445 82.994 164.584 C 80.270 188.705,85.647 214.344,97.882 235.571 C 98.609 236.832,99.168 237.899,99.125 237.942 C 99.082 237.986,98.304 238.176,97.396 238.365 C 91.885 239.514,85.889 244.692,80.374 253.063 L 78.740 255.544 70.929 255.627 C 62.293 255.719,62.272 255.722,59.091 257.291 C 54.802 259.408,49.383 264.968,45.475 271.261 C 44.793 272.358,44.342 272.864,44.038 272.873 C 36.997 273.078,28.766 280.823,21.287 294.281 C 16.429 303.021,15.843 305.789,18.643 306.754 C 19.644 307.099,142.985 307.164,144.221 306.821 C 144.821 306.654,147.201 304.545,153.960 298.189 L 162.904 289.778 164.037 289.700 C 164.836 289.646,165.986 289.849,167.942 290.389 L 170.715 291.155 181.316 306.758 L 191.917 322.362 191.381 323.078 C 186.758 329.244,189.953 338.854,197.415 341.231 C 208.119 344.640,217.268 332.407,210.881 323.229 L 209.911 321.835 211.484 319.487 C 215.376 313.674,230.577 291.164,230.712 291.014 C 230.945 290.754,234.722 289.707,235.155 289.782 C 235.367 289.820,239.464 293.544,244.257 298.059 C 249.051 302.573,253.184 306.417,253.442 306.600 C 253.855 306.894,261.247 306.933,316.734 306.933 L 379.557 306.933 380.183 306.475 C 382.054 305.107,381.953 304.019,379.492 298.975 C 371.986 283.588,363.873 274.775,355.702 273.132 L 353.889 272.768 352.470 270.644 C 347.883 263.781,343.360 259.273,338.920 257.141 C 335.996 255.736,334.723 255.574,326.627 255.574 L 319.570 255.574 318.602 254.006 C 315.655 249.230,310.789 243.708,307.488 241.393 C 305.112 239.727,304.383 239.382,301.125 238.376 C 300.965 238.327,301.477 237.229,302.435 235.565 C 313.895 215.658,319.399 191.592,317.669 168.944 C 317.501 166.746,317.363 164.398,317.362 163.727 L 317.360 162.507 328.636 145.849 L 339.912 129.192 341.053 129.488 C 350.909 132.045,359.160 121.670,354.543 112.524 C 349.972 103.469,336.443 104.307,332.888 113.866 L 332.497 114.920 316.387 114.908 L 300.277 114.897 298.442 112.079 C 281.573 86.185,254.865 68.188,223.254 61.414 L 221.881 61.120 216.795 54.423 C 213.500 50.085,211.655 47.467,211.558 46.991 C 211.251 45.485,205.234 9.105,204.869 6.545 C 204.056 0.845,200.641 -1.547,196.363 0.585 M202.705 29.222 L 206.166 50.124 219.298 67.404 L 232.431 84.684 226.607 125.691 L 220.782 166.698 221.595 167.619 C 222.041 168.125,228.106 174.370,235.071 181.497 L 247.734 194.454 239.952 216.276 C 235.671 228.278,232.139 237.948,232.102 237.765 C 232.065 237.582,231.253 230.475,230.296 221.971 C 228.763 208.338,228.509 206.475,228.145 206.210 C 227.918 206.045,224.794 203.717,221.203 201.036 C 217.612 198.355,214.563 196.204,214.429 196.256 C 214.294 196.308,213.711 197.864,213.133 199.714 C 212.555 201.564,212.050 203.110,212.011 203.149 C 211.971 203.189,209.053 203.533,205.525 203.914 L 199.113 204.606 193.455 204.015 C 185.028 203.135,186.077 203.453,185.471 201.589 C 185.187 200.715,184.938 199.700,184.918 199.334 C 184.870 198.444,184.099 196.093,183.879 196.169 C 183.784 196.202,180.567 198.562,176.732 201.414 C 169.811 206.561,169.758 206.606,169.633 207.515 C 169.564 208.018,168.799 214.870,167.933 222.740 C 167.067 230.610,166.291 237.223,166.208 237.435 C 166.061 237.809,150.795 195.430,150.763 194.561 C 150.755 194.339,155.623 189.173,162.179 182.445 C 168.466 175.994,174.492 169.795,175.571 168.670 L 177.532 166.625 175.399 151.587 C 174.226 143.317,173.114 136.051,172.928 135.441 C 172.550 134.200,170.867 122.021,170.859 120.466 C 170.851 118.998,169.970 113.338,169.698 113.011 C 169.569 112.856,169.466 112.025,169.469 111.164 C 169.472 110.303,169.341 109.273,169.178 108.876 C 169.015 108.478,168.880 107.426,168.877 106.537 C 168.874 105.595,168.759 104.785,168.600 104.594 C 168.447 104.409,168.297 103.431,168.257 102.347 C 168.218 101.291,168.080 100.362,167.950 100.282 C 167.821 100.202,167.677 99.208,167.630 98.072 C 167.584 96.936,167.440 95.941,167.311 95.861 C 167.180 95.781,167.078 95.016,167.081 94.144 C 167.083 93.272,166.945 92.234,166.769 91.813 C 166.594 91.396,166.447 90.331,166.442 89.447 C 166.435 88.451,166.320 87.704,166.137 87.485 C 165.098 86.232,166.306 83.347,169.304 79.922 C 169.917 79.221,170.813 78.058,171.293 77.339 C 172.193 75.992,177.241 69.366,180.945 64.670 C 182.100 63.206,183.411 61.459,183.859 60.788 C 184.306 60.116,186.230 57.521,188.134 55.019 C 190.038 52.518,191.656 50.371,191.729 50.248 C 191.862 50.024,196.809 20.654,198.118 12.313 C 198.860 7.580,199.027 6.854,199.162 7.765 C 199.207 8.070,200.801 17.725,202.705 29.222 M156.131 37.397 C 154.325 38.377,154.431 39.370,157.289 48.253 C 160.041 56.804,160.157 57.016,162.078 57.016 C 163.974 57.016,165.058 56.050,165.058 54.361 C 165.058 53.483,161.286 41.090,160.279 38.663 C 159.698 37.260,157.577 36.613,156.131 37.397 M243.588 37.871 C 242.643 38.522,242.544 38.761,240.045 46.381 C 237.518 54.089,237.283 55.210,237.970 56.259 C 239.120 58.015,242.239 57.760,243.029 55.847 C 244.898 51.318,248.101 40.297,247.799 39.433 C 247.210 37.741,244.977 36.913,243.588 37.871 M129.636 49.051 C 128.524 49.373,127.787 50.417,127.787 51.671 C 127.787 53.069,135.327 66.511,136.518 67.238 C 137.879 68.068,139.877 67.622,140.540 66.341 C 141.336 64.801,141.161 64.336,137.071 57.154 C 132.198 48.596,131.990 48.369,129.636 49.051 M270.130 50.416 C 268.489 52.088,261.682 64.343,261.678 65.630 C 261.672 67.775,263.960 69.053,265.957 68.021 C 266.851 67.558,274.662 54.170,274.823 52.823 C 275.138 50.195,271.951 48.560,270.130 50.416 M105.202 66.471 C 104.018 67.074,103.404 68.745,103.892 70.034 C 104.396 71.361,114.792 82.695,115.777 82.990 C 118.002 83.657,120.196 81.337,119.318 79.246 C 119.050 78.606,110.465 68.790,108.634 67.030 C 107.682 66.114,106.333 65.895,105.202 66.471 M294.204 67.720 C 293.383 68.303,283.871 78.774,283.270 79.756 C 281.846 82.086,284.461 84.961,286.966 83.820 C 287.739 83.468,298.156 71.967,298.544 71.037 C 299.617 68.470,296.502 66.089,294.204 67.720 M234.910 70.576 C 258.059 78.125,282.030 96.263,293.147 114.642 C 293.280 114.861,292.263 114.920,288.347 114.920 L 283.378 114.920 281.653 112.674 C 271.004 98.809,254.962 86.698,238.670 80.221 L 235.409 78.925 231.407 73.644 L 227.405 68.364 229.422 68.904 C 230.531 69.201,233.001 69.953,234.910 70.576 M169.674 69.616 C 169.515 69.836,167.711 72.215,165.666 74.903 L 161.948 79.791 159.676 80.748 C 143.353 87.620,128.854 98.708,117.963 112.646 L 116.186 114.920 111.671 114.920 C 109.187 114.920,107.156 114.845,107.158 114.753 C 107.163 114.485,110.779 109.514,112.745 107.073 C 126.577 89.904,144.446 77.526,165.502 70.530 C 169.870 69.078,170.103 69.028,169.674 69.616 M195.341 75.985 C 180.388 78.811,174.971 97.005,186.009 107.330 C 196.431 117.079,214.179 111.638,217.090 97.801 C 219.782 85.003,208.343 73.528,195.341 75.985 M201.497 81.745 C 211.353 83.833,215.012 95.587,207.993 102.616 C 200.804 109.816,188.543 106.422,186.225 96.592 C 184.201 88.001,192.579 79.855,201.497 81.745 M240.457 83.968 C 254.639 90.256,267.655 100.029,277.205 111.560 C 280.085 115.037,280.024 114.920,278.939 114.920 C 278.127 114.920,277.995 114.811,276.313 112.762 C 267.055 101.484,252.601 90.625,239.601 85.181 C 238.930 84.900,238.364 84.662,238.345 84.653 C 238.246 84.608,238.013 82.973,238.105 82.973 C 238.164 82.973,239.222 83.421,240.457 83.968 M159.771 84.470 L 159.685 85.302 155.771 87.219 C 143.550 93.203,132.004 102.258,123.485 112.539 C 121.591 114.824,121.477 114.920,120.643 114.920 C 119.651 114.920,119.652 114.914,120.997 113.256 C 130.628 101.384,142.355 92.067,156.073 85.388 C 160.264 83.347,159.877 83.443,159.771 84.470 M242.421 89.498 C 254.059 95.239,264.350 103.094,272.567 112.508 C 274.737 114.995,274.710 114.923,273.489 114.909 C 272.619 114.899,272.468 114.803,271.547 113.674 C 264.415 104.927,250.418 94.547,239.034 89.565 C 237.715 88.987,237.693 88.964,237.783 88.194 C 237.900 87.189,237.530 87.085,242.421 89.498 M85.063 88.494 C 83.658 89.350,83.443 91.782,84.668 92.948 C 86.029 94.244,97.606 102.505,98.239 102.632 C 100.013 102.986,101.609 101.626,101.607 99.761 C 101.606 98.165,101.546 98.108,94.205 92.750 C 87.131 87.587,86.801 87.434,85.063 88.494 M160.384 89.231 C 160.395 89.502,159.471 90.075,157.124 91.252 C 146.405 96.625,134.939 105.483,127.834 113.879 C 126.983 114.885,126.876 114.943,125.978 114.878 L 125.024 114.809 127.373 112.146 C 135.508 102.925,145.813 95.079,157.107 89.508 C 160.222 87.972,160.332 87.963,160.384 89.231 M314.343 89.472 C 313.314 89.949,301.254 98.773,300.907 99.303 C 299.080 102.091,302.309 104.955,305.195 103.106 C 308.079 101.258,317.700 94.112,318.010 93.588 C 319.420 91.202,316.845 88.312,314.343 89.472 M243.895 94.885 C 252.225 99.429,258.914 104.454,265.667 111.242 L 269.216 114.809 268.194 114.875 L 267.171 114.941 264.423 112.203 C 257.149 104.955,249.456 99.414,240.433 94.924 C 237.125 93.279,236.462 92.619,237.287 91.794 C 237.458 91.623,240.656 93.118,243.895 94.885 M161.013 93.952 C 160.980 93.974,159.496 94.747,157.714 95.668 C 149.512 99.911,142.108 105.329,135.511 111.914 L 132.476 114.945 131.441 114.877 L 130.406 114.809 133.589 111.581 C 140.883 104.184,148.332 98.710,157.626 93.918 L 160.732 92.317 160.902 93.114 C 160.995 93.552,161.045 93.929,161.013 93.952 M240.082 97.585 C 247.924 101.623,255.037 106.680,260.788 112.303 L 263.450 114.906 262.386 114.913 C 261.339 114.919,261.278 114.880,258.650 112.488 C 252.519 106.908,242.803 100.319,237.474 98.128 C 236.487 97.722,236.285 97.311,236.629 96.413 C 236.823 95.909,236.835 95.913,240.082 97.585 M161.509 97.264 C 161.509 97.559,161.560 97.935,161.624 98.100 C 161.701 98.302,161.104 98.713,159.793 99.360 C 153.611 102.413,146.636 107.291,140.765 112.667 C 138.354 114.876,138.312 114.902,137.216 114.902 L 136.106 114.902 138.701 112.381 C 144.256 106.982,151.245 101.957,158.514 98.135 C 161.559 96.534,161.509 96.549,161.509 97.264 M239.386 101.904 C 245.817 105.384,251.285 109.217,256.448 113.866 L 257.619 114.920 256.356 114.920 C 255.110 114.920,255.068 114.898,253.171 113.292 C 248.450 109.297,242.930 105.614,237.806 103.040 C 236.719 102.494,235.829 101.961,235.829 101.856 C 235.829 99.993,235.856 99.994,239.386 101.904 M162.174 102.030 C 162.174 102.727,162.072 102.915,161.572 103.143 C 157.996 104.772,150.845 109.573,146.285 113.405 C 144.541 114.871,144.444 114.919,143.290 114.911 L 142.097 114.903 143.428 113.649 C 147.361 109.942,153.887 105.350,159.858 102.086 C 162.090 100.866,162.174 100.864,162.174 102.030 M239.490 106.671 C 242.293 108.269,245.494 110.380,248.175 112.400 C 251.499 114.906,251.508 114.920,249.884 114.920 C 248.598 114.920,248.536 114.890,246.141 113.130 C 243.492 111.184,239.877 108.903,236.995 107.358 C 235.808 106.722,235.205 106.275,235.276 106.083 C 235.336 105.920,235.385 105.494,235.385 105.136 L 235.385 104.485 236.550 105.072 C 237.191 105.395,238.514 106.115,239.490 106.671 M162.705 105.731 C 163.138 106.860,162.890 107.234,161.025 108.264 C 158.639 109.581,155.023 111.939,152.839 113.602 L 151.080 114.941 149.694 114.875 L 148.308 114.809 150.194 113.343 C 153.246 110.970,155.647 109.332,159.057 107.295 C 162.559 105.203,162.511 105.224,162.705 105.731 M240.932 112.396 C 242.335 113.291,243.733 114.223,244.038 114.467 L 244.592 114.910 242.972 114.915 C 241.451 114.919,241.273 114.866,240.083 114.058 C 239.385 113.584,237.868 112.661,236.711 112.006 C 234.506 110.757,234.372 110.554,234.841 109.187 C 234.964 108.829,237.117 109.963,240.932 112.396 M163.365 110.316 C 163.628 111.296,163.514 111.738,162.932 112.004 C 162.616 112.148,161.401 112.867,160.232 113.601 L 158.106 114.938 156.550 114.873 L 154.994 114.809 157.420 113.215 C 162.305 110.005,163.169 109.583,163.365 110.316 M59.135 112.469 C 63.061 114.172,64.037 119.234,61.020 122.251 C 58.024 125.248,52.921 124.286,51.241 120.409 C 49.083 115.431,54.169 110.316,59.135 112.469 M346.749 112.662 C 350.663 114.601,351.189 120.296,347.684 122.782 C 341.719 127.012,334.608 119.333,339.574 114.024 C 341.648 111.807,344.087 111.344,346.749 112.662 M235.722 114.053 C 237.244 114.913,237.242 114.920,235.496 114.920 C 233.982 114.920,233.794 114.746,234.189 113.718 C 234.362 113.266,234.303 113.253,235.722 114.053 M163.949 114.476 C 163.949 114.829,163.802 114.919,163.228 114.918 L 162.507 114.917 163.172 114.476 C 163.987 113.937,163.949 113.937,163.949 114.476 M164.943 121.409 C 165.253 123.176,166.833 134.562,166.833 135.029 L 166.833 135.547 156.657 135.605 L 146.481 135.663 149.963 149.972 C 151.878 157.842,153.514 164.556,153.598 164.892 L 153.752 165.502 148.313 165.502 C 144.035 165.502,142.873 165.563,142.873 165.787 C 142.873 165.943,144.071 169.512,145.535 173.718 C 146.999 177.923,148.197 181.389,148.197 181.420 C 148.197 181.450,144.941 181.475,140.961 181.475 C 134.178 181.475,133.732 181.500,133.830 181.864 C 133.887 182.077,138.044 192.805,143.067 205.704 L 152.199 229.156 160.913 241.977 C 165.706 249.028,170.030 255.397,170.523 256.129 L 171.418 257.460 170.368 264.962 C 168.958 275.035,168.772 274.550,174.506 275.738 C 176.448 276.141,179.024 276.677,180.232 276.930 L 182.426 277.390 182.287 280.292 C 182.210 281.889,182.084 285.191,182.008 287.632 L 181.869 292.069 182.504 293.265 C 183.411 294.974,183.977 295.338,191.015 298.740 C 199.436 302.811,198.387 302.743,206.024 299.713 C 216.738 295.463,216.239 296.206,215.771 285.191 C 215.611 281.409,215.541 278.254,215.616 278.180 C 215.690 278.106,217.998 277.676,220.743 277.224 C 229.501 275.781,228.980 276.594,227.602 266.527 L 226.686 259.844 238.059 243.011 L 249.431 226.179 257.946 204.333 C 262.629 192.318,266.518 182.261,266.587 181.984 L 266.713 181.481 259.507 181.423 L 252.300 181.364 255.040 173.489 C 256.546 169.157,257.782 165.590,257.786 165.561 C 257.789 165.533,255.313 165.483,252.283 165.450 L 246.774 165.391 250.278 150.971 C 252.206 143.039,253.838 136.326,253.906 136.051 L 254.030 135.552 242.600 135.552 C 231.654 135.552,231.170 135.535,231.170 135.144 C 231.170 134.920,231.620 131.609,232.169 127.787 C 232.718 123.965,233.167 120.804,233.167 120.763 C 233.167 120.721,255.530 120.688,282.862 120.688 C 330.042 120.688,332.557 120.707,332.557 121.076 C 332.557 121.605,333.793 124.181,334.479 125.080 C 334.785 125.483,334.984 125.932,334.920 126.079 C 334.018 128.138,204.993 318.459,204.536 318.403 C 202.009 318.092,199.180 318.118,197.998 318.461 C 196.941 318.769,196.672 318.782,196.446 318.540 C 196.215 318.292,68.866 130.935,66.465 127.310 L 65.635 126.056 66.513 124.759 C 66.996 124.045,67.616 122.837,67.890 122.074 L 68.390 120.688 116.603 120.688 L 164.816 120.688 164.943 121.409 M196.680 122.697 C 185.491 124.434,180.581 137.797,188.112 146.016 C 196.623 155.303,212.161 150.038,213.129 137.539 C 213.811 128.746,205.576 121.315,196.680 122.697 M200.237 128.472 C 210.445 130.342,209.158 144.759,198.783 144.759 C 188.509 144.759,187.270 130.166,197.400 128.459 C 198.891 128.208,198.794 128.208,200.237 128.472 M92.484 135.925 C 91.064 136.807,90.781 138.605,91.807 140.223 C 94.759 144.878,138.226 208.604,138.358 208.471 C 138.413 208.416,135.658 201.178,132.235 192.387 C 128.813 183.595,126.012 176.346,126.012 176.277 C 126.012 176.207,129.307 176.151,133.333 176.151 C 137.696 176.151,140.654 176.068,140.654 175.945 C 140.654 175.831,139.456 172.280,137.992 168.053 C 136.528 163.826,135.330 160.327,135.330 160.276 C 135.330 160.226,137.954 160.158,141.160 160.126 L 146.991 160.067 144.001 147.809 L 141.011 135.552 117.039 135.558 C 95.271 135.563,93.014 135.597,92.484 135.925 M256.512 147.699 C 254.893 154.379,253.570 159.920,253.573 160.011 C 253.575 160.103,256.173 160.177,259.346 160.177 C 262.518 160.177,265.114 160.256,265.114 160.351 C 265.114 160.447,263.916 163.966,262.452 168.171 C 260.988 172.377,259.790 175.893,259.790 175.984 C 259.789 176.076,263.095 176.151,267.136 176.151 C 274.025 176.151,274.477 176.175,274.379 176.539 C 274.321 176.753,271.810 183.254,268.797 190.987 C 265.785 198.720,263.365 205.091,263.419 205.146 C 263.545 205.272,261.547 208.206,286.460 171.295 C 310.260 136.033,308.732 138.534,307.566 136.753 C 306.741 135.494,307.940 135.552,282.707 135.553 L 259.456 135.553 256.512 147.699 M92.559 176.151 L 96.213 181.586 96.360 184.186 C 98.368 219.652,120.750 252.936,153.664 269.402 L 157.024 271.083 158.452 273.145 C 164.066 281.255,165.551 283.573,165.033 283.417 C 164.742 283.330,163.161 282.760,161.520 282.150 C 121.118 267.135,92.867 230.609,88.631 187.909 C 87.929 180.835,87.926 169.664,88.625 170.414 C 88.780 170.580,90.550 173.161,92.559 176.151 M312.146 176.550 C 312.146 218.363,289.779 255.868,252.985 275.752 C 248.400 278.230,237.271 283.084,236.175 283.084 C 236.102 283.084,238.016 280.151,240.428 276.566 L 244.814 270.048 246.256 269.335 C 278.139 253.568,300.432 220.685,303.177 185.373 L 303.332 183.391 307.565 177.109 C 309.894 173.653,311.877 170.826,311.973 170.826 C 312.068 170.826,312.146 173.402,312.146 176.550 M100.139 187.329 C 100.883 188.409,101.003 188.797,101.396 191.378 C 105.948 221.266,124.097 247.936,149.910 262.669 C 152.072 263.902,153.744 265.492,153.744 266.313 C 153.744 266.366,152.820 265.908,151.692 265.296 C 125.153 250.909,106.287 225.222,100.641 195.785 C 100.166 193.305,99.909 191.647,99.275 186.966 C 99.131 185.896,99.160 185.908,100.139 187.329 M299.715 191.595 C 295.092 222.153,274.778 251.425,248.930 264.776 L 248.164 265.171 248.579 264.532 C 248.808 264.181,249.189 263.594,249.428 263.228 C 249.666 262.862,250.771 262.013,251.883 261.342 C 273.430 248.340,290.094 225.718,296.253 201.109 C 297.104 197.710,298.170 192.423,298.170 191.603 C 298.170 191.077,299.878 188.212,300.074 188.408 C 300.133 188.467,299.971 189.901,299.715 191.595 M105.638 195.397 C 106.474 196.663,106.757 197.405,107.469 200.205 C 112.947 221.738,126.379 241.286,144.590 254.229 C 146.059 255.273,146.798 255.990,147.618 257.167 C 148.945 259.071,148.791 259.017,144.648 256.121 C 124.126 241.775,109.869 220.280,104.941 196.260 C 104.336 193.308,104.294 193.361,105.638 195.397 M293.838 199.882 C 288.337 222.283,274.522 242.342,255.241 255.921 C 253.800 256.936,253.719 256.967,254.113 256.350 C 255.546 254.107,256.112 253.480,258.125 251.913 C 274.400 239.243,286.908 220.587,291.744 201.775 C 292.201 199.994,294.209 196.298,294.539 196.628 C 294.582 196.671,294.266 198.136,293.838 199.882 M113.334 206.713 C 113.850 207.477,114.724 209.224,115.274 210.595 C 119.862 222.022,126.853 232.463,135.885 241.375 C 138.533 243.989,143.262 250.006,141.632 248.687 C 127.981 237.648,117.571 222.764,112.008 206.333 C 111.535 204.936,111.148 203.748,111.148 203.693 C 111.148 203.572,112.076 204.853,113.334 206.713 M285.948 210.784 C 280.939 223.341,272.767 235.343,263.279 244.077 C 262.043 245.215,261.118 245.996,261.222 245.813 C 262.248 244.015,265.537 239.560,266.927 238.086 C 272.412 232.267,277.669 224.555,281.652 216.484 C 283.051 213.648,287.043 207.104,287.249 207.308 C 287.283 207.342,286.697 208.906,285.948 210.784 M184.772 208.961 C 185.043 209.133,183.215 262.162,182.678 269.685 L 182.550 271.484 179.113 270.761 C 177.223 270.363,175.643 270.003,175.602 269.960 C 175.525 269.880,183.879 209.524,184.035 209.040 C 184.138 208.717,184.351 208.694,184.772 208.961 M213.862 208.930 C 213.860 209.021,215.770 223.002,218.105 239.998 C 220.441 256.994,222.314 270.938,222.268 270.984 C 222.146 271.106,215.395 272.264,215.317 272.176 C 215.281 272.136,214.741 258.674,214.117 242.263 C 213.493 225.851,212.925 211.659,212.856 210.723 C 212.743 209.207,212.773 209.012,213.131 208.919 C 213.774 208.752,213.866 208.753,213.862 208.930 M195.064 210.015 L 196.118 210.151 196.118 248.958 C 196.118 291.604,196.022 288.669,197.441 289.403 C 198.411 289.904,199.928 289.836,200.663 289.258 C 201.959 288.239,201.886 290.654,201.886 248.732 L 201.886 210.151 202.940 210.018 C 203.519 209.944,204.658 209.819,205.470 209.739 L 206.947 209.594 207.075 211.009 C 207.145 211.787,207.851 229.645,208.644 250.693 C 209.437 271.742,210.133 289.578,210.191 290.330 L 210.296 291.696 204.731 293.926 L 199.167 296.156 193.593 293.473 C 190.528 291.997,187.939 290.717,187.841 290.629 C 187.742 290.540,188.367 272.509,189.230 250.558 C 190.092 228.608,190.797 210.410,190.795 210.118 C 190.793 209.550,191.362 209.536,195.064 210.015 M105.303 246.866 C 106.539 248.544,108.595 251.165,109.872 252.690 L 112.192 255.463 105.696 255.522 C 102.123 255.554,96.186 255.554,92.501 255.522 L 85.803 255.463 87.124 253.682 C 92.351 246.632,96.254 243.896,101.167 243.838 L 103.055 243.816 105.303 246.866 M300.466 244.265 C 303.374 245.164,307.442 248.653,310.804 253.134 C 311.582 254.171,312.314 255.144,312.432 255.297 C 312.601 255.518,310.138 255.574,300.285 255.574 L 287.925 255.574 289.352 253.966 C 291.254 251.822,294.053 248.274,295.773 245.826 C 297.392 243.522,297.713 243.415,300.466 244.265 M120.315 263.622 C 123.414 266.470,125.855 268.513,129.090 270.965 L 131.612 272.879 91.514 272.879 C 59.469 272.879,51.458 272.823,51.628 272.601 C 51.745 272.449,52.480 271.475,53.260 270.438 C 56.880 265.626,60.902 262.326,64.048 261.585 C 64.517 261.475,76.661 261.377,91.363 261.364 L 117.835 261.342 120.315 263.622 M334.443 261.644 C 337.858 262.558,341.273 265.428,345.410 270.863 C 346.174 271.866,346.755 272.731,346.702 272.784 C 346.650 272.836,329.099 272.855,307.701 272.824 L 268.796 272.768 270.890 271.215 C 273.656 269.164,277.575 265.888,280.270 263.374 L 282.448 261.342 307.891 261.345 C 328.426 261.347,333.547 261.405,334.443 261.644 M142.399 279.727 C 145.438 281.440,150.806 284.078,154.013 285.434 C 155.634 286.120,157.038 286.753,157.133 286.840 C 157.227 286.928,153.887 290.212,149.709 294.138 L 142.114 301.276 83.130 301.276 L 24.146 301.276 25.193 299.334 C 31.634 287.396,38.057 280.096,43.179 278.893 C 43.679 278.776,64.182 278.682,92.260 278.669 L 140.483 278.647 142.399 279.727 M355.707 279.096 C 359.640 280.311,364.635 285.320,369.371 292.798 C 370.835 295.110,374.043 300.829,374.043 301.127 C 374.043 301.209,347.530 301.276,315.125 301.276 L 256.207 301.276 248.891 294.372 C 244.867 290.575,241.605 287.439,241.642 287.404 C 241.678 287.368,242.708 286.940,243.930 286.454 C 247.749 284.933,252.889 282.490,256.351 280.549 L 259.678 278.683 306.965 278.665 C 353.858 278.647,354.264 278.650,355.707 279.096 M203.558 324.429 C 205.839 325.491,207.440 328.217,207.126 330.503 C 206.306 336.488,198.682 337.990,195.774 332.740 C 193.042 327.809,198.440 322.046,203.558 324.429 " stroke="none" fill="#f45c44" fill-rule="evenodd"></path><path id="path1" d="" stroke="none" fill="#f85c44" fill-rule="evenodd"></path><path id="path2" d="" stroke="none" fill="#f85c44" fill-rule="evenodd"></path><path id="path3" d="" stroke="none" fill="#f85c44" fill-rule="evenodd"></path><path id="path4" d="" stroke="none" fill="#f85c44" fill-rule="evenodd"></path></g></svg>